<?xml version="1.0" encoding="utf-8"?>
<!-- Generator: Adobe Adobe Illustrator 24.2.0, SVG Export Plug-In . SVG Version: 6.00 Build 0)  -->
<svg version="1.1" id="Layer_1" xmlns="http://www.w3.org/2000/svg" xmlns:xlink="http://www.w3.org/1999/xlink" x="0px" y="0px"
	 width="419.61px" height="419.61px" viewBox="0 0 419.61 419.61" style="enable-background:new 0 0 419.61 419.61;"
	 xml:space="preserve">
<style type="text/css">
	.st0{fill:none;stroke:#000000;stroke-width:28;stroke-linecap:round;stroke-linejoin:round;stroke-miterlimit:10;}
	.st1{fill:none;stroke:#000000;stroke-width:17;stroke-linecap:round;stroke-linejoin:round;stroke-miterlimit:10;}
	.st2{fill:none;stroke:#000000;stroke-width:20;stroke-linecap:round;stroke-linejoin:round;stroke-miterlimit:10;}
	.st3{fill:none;stroke:#000000;stroke-width:15;stroke-miterlimit:10;}
	.st4{fill:none;stroke:#000000;stroke-width:15;stroke-linecap:round;stroke-linejoin:round;stroke-miterlimit:10;}
	.st5{fill:none;stroke:#000000;stroke-width:23;stroke-linecap:round;stroke-linejoin:round;stroke-miterlimit:10;}
	
		.st6{clip-path:url(#SVGID_2_);fill:none;stroke:#000000;stroke-width:23;stroke-linecap:round;stroke-linejoin:round;stroke-miterlimit:10;}
	
		.st7{clip-path:url(#SVGID_4_);fill:none;stroke:#000000;stroke-width:23;stroke-linecap:round;stroke-linejoin:round;stroke-miterlimit:10;}
	
		.st8{clip-path:url(#SVGID_6_);fill:none;stroke:#000000;stroke-width:23;stroke-linecap:round;stroke-linejoin:round;stroke-miterlimit:10;}
	
		.st9{clip-path:url(#SVGID_8_);fill:none;stroke:#000000;stroke-width:23;stroke-linecap:round;stroke-linejoin:round;stroke-miterlimit:10;}
	.st10{fill:none;stroke:#000000;stroke-miterlimit:10;}
	.st11{fill:none;stroke:#000000;stroke-width:15;stroke-linecap:round;stroke-miterlimit:10;}
	.st12{fill:none;stroke:#000000;stroke-width:20;stroke-miterlimit:10;}
	.st13{fill:none;stroke:#000000;stroke-width:25;stroke-miterlimit:10;}
	.st14{fill:none;}
	.st15{clip-path:url(#SVGID_10_);}
	.st16{clip-path:url(#SVGID_12_);}
	.st17{clip-path:url(#SVGID_14_);}
	.st18{clip-path:url(#SVGID_16_);}
	.st19{fill:none;stroke:#000000;stroke-width:22;stroke-linecap:round;stroke-linejoin:round;stroke-miterlimit:10;}
	.st20{fill:none;stroke:#000000;stroke-width:20;stroke-linecap:square;stroke-linejoin:round;stroke-miterlimit:10;}
	.st21{fill:none;stroke:#000000;stroke-width:20;stroke-linecap:round;stroke-linejoin:bevel;stroke-miterlimit:10;}
	.st22{fill:none;stroke:#000000;stroke-width:12;stroke-linejoin:round;stroke-miterlimit:10;}
	.st23{opacity:0.9882;fill:none;stroke:#000000;stroke-width:10;stroke-linejoin:round;stroke-miterlimit:10;}
	.st24{opacity:0.9882;}
	.st25{fill:none;stroke:#000000;stroke-width:13;stroke-linecap:round;stroke-linejoin:round;stroke-miterlimit:10;}
	.st26{fill:none;stroke:#000000;stroke-width:18;stroke-linejoin:round;stroke-miterlimit:10;}
	.st27{fill:none;stroke:#000000;stroke-width:18;stroke-linecap:round;stroke-linejoin:round;stroke-miterlimit:10;}
	.st28{fill:none;stroke:#000000;stroke-width:5;stroke-miterlimit:10;}
	.st29{fill:none;stroke:#000000;stroke-width:7;stroke-miterlimit:10;}
	.st30{fill:url(#SVGID_17_);}
	.st31{fill:url(#SVGID_18_);}
	.st32{fill:none;stroke:#000000;stroke-width:20;stroke-linecap:round;stroke-miterlimit:10;}
	.st33{fill:none;stroke:#000000;stroke-width:13;stroke-linejoin:round;stroke-miterlimit:10;}
	.st34{stroke:#000000;stroke-width:15;stroke-miterlimit:10;}
	.st35{fill:none;stroke:#000000;stroke-width:12;stroke-linecap:round;stroke-miterlimit:10;}
	.st36{stroke:#000000;stroke-width:4;stroke-miterlimit:10;}
	.st37{fill:none;stroke:#000000;stroke-width:22;stroke-miterlimit:10;}
</style>
<g>
	<path d="M121.6,277.81c-45.38,0-82.29-33.76-82.29-75.25c0-40.34,35.38-70.75,82.29-70.75c20.69,0,42.3,9.92,64.24,29.47
		c14.74,13.14,25.9,27.4,31.27,34.78h11.47l-5.49,8.45l0.18,0.25l-4.45,6.33c-0.02,0.03-0.04,0.06-0.07,0.09l-1.23,1.9
		C215.78,215.72,174.55,277.81,121.6,277.81z M121.6,153.81c-16.86,0-32.29,5.01-43.46,14.1c-7.68,6.25-16.83,17.33-16.83,34.65
		c0,29.36,27.05,53.25,60.29,53.25c34.47,0,65.47-38.28,74.72-50.85C177.35,180.12,148.11,153.81,121.6,153.81z"/>
	<path d="M298.02,277.8c-52.95,0-94.18-62.08-95.91-64.73l-1.35-2.07l-4.4-6.25l0.16-0.23l-5.55-8.48h11.54
		c12.96-17.84,50.97-64.24,95.51-64.24c45.38,0,82.29,33.75,82.29,75.25C380.31,247.39,344.93,277.8,298.02,277.8z M223.3,204.96
		c9.24,12.55,40.24,50.84,74.72,50.84c16.86,0,32.3-5.01,43.47-14.1c7.67-6.25,16.82-17.33,16.82-34.65
		c0-29.36-27.05-53.25-60.29-53.25C271.5,153.81,242.27,180.12,223.3,204.96z"/>
</g>
</svg>
